<svg xmlns="http://www.w3.org/2000/svg" viewBox="0 0 512 512">
  <rect width="512" height="512" rx="92" fill="#111318"/>
  <path d="M128 124h256c26.5 0 48 21.5 48 48v168c0 26.5-21.5 48-48 48H128c-26.5 0-48-21.5-48-48V172c0-26.5 21.5-48 48-48Z" fill="#f8fafc"/>
  <path d="M128 124h72v264h-72c-26.5 0-48-21.5-48-48V172c0-26.5 21.5-48 48-48Z" fill="#0ea5e9"/>
  <circle cx="150" cy="188" r="24" fill="#fff"/>
  <circle cx="150" cy="256" r="24" fill="#fff"/>
  <circle cx="150" cy="324" r="24" fill="#fff"/>
  <path d="M248 188h104M248 256h128M248 324h88" stroke="#166534" stroke-width="34" stroke-linecap="round"/>
</svg>
